<svg height="380"
    width="26"
    xmlns="http://www.w3.org/2000/svg">
  <rect fill="#069"
      height="100%"
      width="100%"/>
  <rect fill="#fff"
      height="14"
      rx="6"
      ry="3"
      stroke="#900"
      width="14"
      x="6"
      y="300"/>
  <text fill="#900"
      font-family="Arial, sans-serif"
      dominant-baseline="middle"
      text-anchor="middle"
      transform="rotate(-90)"
      x="-307"
      y="13">I</text>
  <rect fill="#fff"
      height="14"
      rx="6"
      ry="3"
      stroke="#900"
      width="14"
      x="6"
      y="283"/>
  <text fill="#900"
      font-family="Arial, sans-serif"
      dominant-baseline="middle"
      text-anchor="middle"
      transform="rotate(-90)"
      x="-290"
      y="13">C</text>
  <rect fill="#fff"
      height="14"
      rx="6"
      ry="3"
      stroke="#900"
      width="14"
      x="6"
      y="266"/>
  <text fill="#900"
      font-family="Arial, sans-serif"
      dominant-baseline="middle"
      text-anchor="middle"
      transform="rotate(-90)"
      x="-273"
      y="13">A</text>
  <rect fill="#900"
      height="14"
      rx="6"
      ry="3"
      width="14"
      x="6"
      y="249"/>
  <text fill="#fff"
      font-family="Arial, sans-serif"
      dominant-baseline="middle"
      text-anchor="middle"
      transform="rotate(-90)"
      x="-256"
      y="13">A</text>
  <rect fill="#900"
      height="14"
      rx="6"
      ry="3"
      width="14"
      x="6"
      y="232"/>
  <text fill="#fff"
      font-family="Arial, sans-serif"
      dominant-baseline="middle"
      text-anchor="middle"
      transform="rotate(-90)"
      x="-239"
      y="13">t</text>
  <rect fill="#900"
      height="14"
      rx="6"
      ry="3"
      width="14"
      x="6"
      y="215"/>
  <text fill="#fff"
      font-family="Arial, sans-serif"
      dominant-baseline="middle"
      text-anchor="middle"
      transform="rotate(-90)"
      x="-222"
      y="13">o</text>
  <rect fill="#900"
      height="14"
      rx="6"
      ry="3"
      width="14"
      x="6"
      y="198"/>
  <text fill="#fff"
      font-family="Arial, sans-serif"
      dominant-baseline="middle"
      text-anchor="middle"
      transform="rotate(-90)"
      x="-205"
      y="13">M</text>
  <text fill="#fff"
      font-family="Arial, sans-serif"
      dominant-baseline="middle"
      transform="rotate(-90)"
      x="-150"
      y="13">User's Manual</text>
</svg>
